<?xml version="1.0" encoding="utf-8"?>
<svg viewBox="0 0 500 500" xmlns="http://www.w3.org/2000/svg" xmlnsBx="https://boxy-svg.com">
  <g transform="matrix(0.275505, 0, 0, 0.298316, 230.101398, 171.061526)" style=""/>
  <g transform="matrix(0.275505, 0, 0, 0.298316, 230.101398, 171.061526)" style=""/>
  <g transform="matrix(0.275505, 0, 0, 0.298316, 230.101398, 171.061526)" style=""/>
  <g transform="matrix(0.275505, 0, 0, 0.298316, 230.101398, 171.061526)" style=""/>
  <g transform="matrix(0.275505, 0, 0, 0.298316, 230.101398, 171.061526)" style=""/>
  <g transform="matrix(0.275505, 0, 0, 0.298316, 230.101398, 171.061526)" style=""/>
  <g transform="matrix(0.275505, 0, 0, 0.298316, 161.000002, 171.061526)" style=""/>
  <g transform="matrix(0.275505, 0, 0, 0.298316, 230.101398, 171.061526)" style=""/>
  <g transform="matrix(0.275505, 0, 0, 0.298316, 230.101398, 171.061526)" style=""/>
  <g transform="matrix(0.275505, 0, 0, 0.298316, 230.101398, 171.061526)" style=""/>
  <g transform="matrix(0.275505, 0, 0, 0.298316, 230.101398, 171.061526)" style=""/>
  <g transform="matrix(0.275505, 0, 0, 0.298316, 230.101398, 171.061526)" style=""/>
  <g transform="matrix(0.275505, 0, 0, 0.298316, 230.101398, 171.061526)" style=""/>
  <g transform="matrix(0.275505, 0, 0, 0.298316, 230.101398, 171.061526)" style=""/>
  <g transform="matrix(0.275505, 0, 0, 0.298316, 230.101398, 171.061526)" style=""/>
  <path d="M 120.8 187.2 m -184.376 0 a 184.376 184.376 0 1 0 368.752 0 a 184.376 184.376 0 1 0 -368.752 0 Z M 120.8 187.2 m -110.625 0 a 110.625 110.625 0 0 1 221.25 0 a 110.625 110.625 0 0 1 -221.25 0 Z" style="fill: rgb(74, 210, 149);" transform="matrix(-0.69174, 0.722146, -0.722146, -0.69174, 468.748023, 292.258519)" bxShape="ring 120.8 187.2 110.625 110.625 184.376 184.376 1@5fb38990"/>
  <g transform="matrix(0.005399, 0.357746, -0.380397, -0.005621, 468.211921, 274.59705)" style=""/>
  <g transform="matrix(0.005399, 0.357746, -0.380397, -0.005621, 468.211921, 274.59705)" style=""/>
  <g transform="matrix(0.005399, 0.357746, -0.380397, -0.005621, 468.211921, 274.59705)" style=""/>
  <g transform="matrix(0.005399, 0.357746, -0.380397, -0.005621, 468.211921, 274.59705)" style=""/>
  <g transform="matrix(0.005399, 0.357746, -0.380397, -0.005621, 468.211921, 274.59705)" style=""/>
  <g transform="matrix(0.005399, 0.357746, -0.380397, -0.005621, 468.211921, 274.59705)" style=""/>
  <g transform="matrix(0.005399, 0.357746, -0.380397, -0.005621, 468.211921, 274.59705)" style=""/>
  <g transform="matrix(0.005399, 0.357746, -0.380397, -0.005621, 468.211921, 274.59705)" style=""/>
  <g transform="matrix(0.005399, 0.357746, -0.380397, -0.005621, 468.211921, 274.59705)" style=""/>
  <g transform="matrix(0.005399, 0.357746, -0.380397, -0.005621, 468.211921, 274.59705)" style=""/>
  <g transform="matrix(0.005399, 0.357746, -0.380397, -0.005621, 468.211921, 274.59705)" style=""/>
  <g transform="matrix(0.005399, 0.357746, -0.380397, -0.005621, 468.211921, 274.59705)" style=""/>
  <g transform="matrix(0.005399, 0.357746, -0.380397, -0.005621, 468.211921, 274.59705)" style=""/>
  <g transform="matrix(0.005399, 0.357746, -0.380397, -0.005621, 468.211921, 274.59705)" style=""/>
  <g transform="matrix(0.005399, 0.357746, -0.380397, -0.005621, 468.211921, 274.59705)" style=""/>
  <path style="fill:#F18CB9;" d="M 458.486 457.773 L 479.859 429.032 L 452.233 408.488 C 452.233 408.488 440.109 401.528 418.468 430.586 L 418.467 430.585 C 418.452 430.606 418.438 430.626 418.423 430.647 C 418.416 430.654 418.41 430.661 418.406 430.668 L 418.406 430.668 C 396.805 459.759 406.962 469.366 406.962 469.366 L 434.589 489.91 L 458.486 457.773 L 458.486 457.773 Z" transform="matrix(-0.986282, -0.16507, 0.16507, -0.986282, 804.280102, 964.507461)"/>
  <rect x="71.498" y="45.944" transform="matrix(-0.692931, -0.721004, 0.721004, -0.692931, 415.92594, 543.340889)" style="fill:#C7C8CA;" width="34.667" height="75.86"/>
  <polygon style="fill:#FFCB05;" points="303.756 269.359 258.4 330.353 388.069 426.78 384.414 403.012 409.56 397.395 406.885 371.818 432.091 366.608" transform="matrix(-0.986282, -0.16507, 0.16507, -0.986282, 628.299204, 748.35371)"/>
  <polygon style="fill:#FBE89F;" points="293.738 250.078 270.388 254.859 273.22 280.706 248.43 286.495 251.637 309.246 295.065 315.51 312.609 292.402" transform="matrix(-0.986282, -0.16507, 0.16507, -0.986282, 510.510139, 608.013864)"/>
  <polygon style="fill:#231F20;" points="238.6 261.725 255.132 239.493 267.984 266.227" transform="matrix(-0.986282, -0.16507, 0.16507, -0.986282, 461.369849, 544.06202)"/>
</svg>